Coordinates
version=1
nRows=19
nColumns=36
inDegrees=yes

Units are S.I. units (second, meters, Newtons, ...)
If the header above contains a line with 'inDegrees', this indicates whether rotational values are in degrees (yes) or radians (no).

endheader
time	pelvis_tilt	pelvis_list	pelvis_rotation	pelvis_tx	pelvis_ty	pelvis_tz	hip_flexion_r	hip_adduction_r	hip_rotation_r	knee_angle_r	knee_angle_r_beta	ankle_angle_r	subtalar_angle_r	mtp_angle_r	hip_flexion_l	hip_adduction_l	hip_rotation_l	knee_angle_l	knee_angle_l_beta	ankle_angle_l	subtalar_angle_l	mtp_angle_l	lumbar_extension	lumbar_bending	lumbar_rotation	arm_flex_r	arm_add_r	arm_rot_r	elbow_flex_r	pro_sup_r	arm_flex_l	arm_add_l	arm_rot_l	elbow_flex_l	pro_sup_l
     30.15000000	    -10.11927369	     -1.21090448	     -3.22404911	      0.77518346	      0.79380767	      0.74942258	      1.31267212	      4.90301323	      1.50196074	     12.72055490	      0.22201557	     20.26327092	      4.79395827	     -7.49999987	     38.10852738	     -2.03665656	     -0.81323828	      8.58270807	      0.14979651	     10.88490609	      6.91217597	     -7.49999987	     10.42927499	      2.94589292	      3.07211475	     10.27782891	    -13.84365035	     10.70119970	     22.55244131	     92.78721835	      3.78129349	     -6.53724779	      3.91084680	      8.52617936	     94.26543289
     30.16666670	    -10.06198388	     -0.75636667	     -2.98477264	      0.77669641	      0.79524144	      0.74698513	      0.54647045	      4.12051111	      1.51251964	     13.60853472	      0.23751374	     20.59486954	      4.30025747	     -7.49999987	     37.76911613	     -1.50391054	     -1.02729821	      9.65403608	      0.16849472	     10.21627978	      6.45726159	     -7.49999987	     10.73197664	      2.32053720	      2.89081140	     10.05868755	    -13.51794298	     10.71701796	     22.47045063	     92.94215785	      3.91310000	     -6.71517836	      3.84650210	      8.43431317	     94.39842797
     30.18333330	     -9.99467942	     -0.39523456	     -2.76751739	      0.77900106	      0.79494148	      0.74492049	     -0.28294143	      3.38704096	      1.27440060	     14.36480441	      0.25071313	     20.38052483	      3.82612704	     -7.49999987	     37.33356924	     -1.00961353	     -1.40437920	     11.01237271	      0.19220216	      9.23967513	      6.00060205	     -7.49999987	     11.06807250	      1.89866613	      2.77902538	      9.71166857	    -13.28041322	     10.73628207	     22.33004587	     93.01385140	      3.93885032	     -6.82628343	      3.82503256	      8.36347362	     94.45900038
     30.20000000	     -9.64653272	     -0.01171144	     -2.61289012	      0.78169460	      0.79299809	      0.74318389	     -1.32818753	      2.67112397	      1.42832133	     15.16438924	      0.26466852	     19.61623562	      2.37732137	     -7.49999987	     36.46961716	     -0.38803408	     -0.98408503	     12.25983414	      0.21397447	      7.83615936	      4.24047461	     -7.49999987	     10.93907775	      1.37794888	      2.83335321	      9.55687337	    -12.98162647	     10.46614995	     21.79848591	     93.42753406	      4.29178136	     -6.95905579	      3.76716280	      7.91004308	     94.89108352
     30.21666670	     -9.56485560	      0.24717169	     -2.49369136	      0.78523623	      0.79081556	      0.74131369	     -2.07513593	      2.07667849	      1.19759707	     15.93662187	      0.27814652	     19.01869105	      2.11161202	     -7.49999987	     35.91083528	      0.00805518	     -1.11576321	     13.64152823	      0.23808958	      6.83411772	      4.05333527	     -7.49999987	     11.23545268	      1.02502708	      2.78926746	      9.07238191	    -12.75913330	     10.47871195	     21.64517098	     93.47105238	      4.12407559	     -7.05346109	      3.75344149	      7.84616481	     94.92399090
     30.23333330	     -9.11874678	      0.64648842	     -2.32491832	      0.78934440	      0.79080615	      0.73929396	     -3.09601966	      1.38580821	      1.24137559	     16.79294432	      0.29309217	     17.93009468	      0.61247610	     -7.49999987	     34.94781969	      0.70678207	     -0.37434744	     14.92944928	      0.26056805	      5.43421384	      2.06807830	     -7.49999987	     10.81273306	      0.42064745	      2.99446159	      8.76796842	    -12.42494561	     10.07195075	     21.02465107	     93.73580481	      4.52552287	     -7.24863176	      3.68705966	      7.66871300	     95.17987674
     30.25000000	     -8.74721151	      1.02134796	     -2.18049981	      0.79435350	      0.79209243	      0.73833808	     -3.84864203	      0.71734394	      1.09124901	     17.97029607	      0.31364083	     16.92089153	     -0.23649583	     -7.49999987	     34.01750941	      1.32323480	      0.04038835	     16.20032895	      0.28274908	      4.55211421	      0.94219840	     -7.49999987	     10.62658553	     -0.11543646	      3.04788044	      8.23197826	    -12.04406008	      9.58579629	     20.38372527	     94.03317360	      4.61180565	     -7.41283783	      3.62523517	      7.55919921	     95.42304318
     30.26666670	     -8.39854644	      1.40177716	     -2.10561859	      0.79891341	      0.79361240	      0.73885162	     -4.06224354	      0.05317918	      0.97995398	     20.09649595	      0.35075002	     15.56116182	     -1.25125108	     -7.49999987	     33.07373970	      1.92332551	      0.38361213	     17.50867887	      0.30558409	      4.08559601	     -0.15935782	     -7.49999987	     10.50462456	     -0.65847630	      3.09620380	      7.57226193	    -11.58741814	      9.21120092	     19.62825208	     94.29353475	      4.61801664	     -7.59523777	      3.55159092	      7.48867154	     95.57340455
     30.28333330	     -7.92805971	      1.75986190	     -1.93853315	      0.80243282	      0.79565521	      0.73892392	     -3.68232630	     -0.67844910	      0.44299054	     23.61771822	      0.41220694	     13.29416402	     -1.85041170	     -7.49999987	     31.92764117	      2.58058097	      0.59964148	     18.86923198	      0.32933023	      4.29721374	     -0.77373329	     -7.49999987	     10.23543529	     -1.16766931	      2.86837301	      6.80010936	    -11.16928172	      9.16491756	     19.14887544	     94.37079780	      4.59548583	     -7.77711002	      3.51836499	      7.45693032	     95.59659699
     30.30000000	     -7.80260398	      2.20592795	     -2.19457398	      0.80458955	      0.79815248	      0.73795516	     -1.80706704	     -1.38858024	      0.97393585	     29.05493430	      0.50710427	      9.33478519	     -4.55856959	     -7.49999987	     30.97901073	      3.16791384	      0.74748946	     20.07295884	      0.35033922	      4.36985118	     -2.34580007	     -7.49999987	     10.42726455	     -1.72774626	      3.04115332	      6.20660223	    -10.47550940	      8.64186368	     17.62208608	     94.74990429	      4.49063514	     -7.98195955	      3.34241933	      7.39332364	     95.67514912
     30.31666670	     -7.35802312	      2.73344659	     -2.42486835	      0.80468870	      0.80156019	      0.73485608	      0.45567715	     -2.35012030	      1.02408086	     35.48016039	      0.61924562	      4.65779898	     -5.96020643	     -7.49999987	     29.51450864	      3.87189078	      0.54597974	     20.90250766	      0.36481758	      5.14784212	     -3.08704290	     -7.49999987	      9.93226190	     -2.33651422	      2.78114997	      5.75389531	     -9.95728567	      8.47292905	     17.00392860	     94.90822241	      4.47276247	     -8.23458303	      3.25763975	      7.42115892	     95.67859980
     30.33333330	     -7.83766442	      3.16634113	     -2.84199294	      0.80269049	      0.80355873	      0.73122577	      4.16556534	     -3.00514844	      1.64897803	     41.93461856	      0.73189716	     -0.97918703	     -8.49094158	     -7.49999987	     28.88707033	      4.31016779	      0.12598463	     21.25107386	      0.37090121	      6.14483602	     -3.56743336	     -7.49999987	     10.67060256	     -2.67659745	      2.82038635	      5.19728498	     -9.52729663	      7.91251179	     15.82449362	     95.31387842	      4.19320463	     -8.39589488	      2.95350310	      7.76217545	     95.58385860
     30.35000000	     -7.71020220	      3.59556346	     -3.35113902	      0.79938229	      0.80617531	      0.72834075	      7.31950269	     -3.67042095	      2.10877276	     47.62700478	      0.83124805	     -4.67239765	     -9.76452086	     -7.49999987	     27.44264133	      4.77017272	     -0.28499846	     20.95689177	      0.36576676	      7.02374550	     -4.03229287	     -7.49999987	     10.13673313	     -3.01781583	      2.56002613	      4.99108772	     -9.30973717	      7.67324033	     15.64204776	     95.25748470	      4.09316086	     -8.58850561	      2.80094347	      8.27661091	     95.31670157
     30.36666670	     -8.44942357	      3.74979348	     -3.83879235	      0.79693358	      0.80774440	      0.72695239	     11.28395913	     -3.82861702	      2.53561018	     52.29658110	      0.91274753	     -7.13060249	    -11.03975979	     -7.49999987	     27.00718722	      4.85597199	     -0.62043073	     20.64608977	      0.36034224	      7.81155898	     -4.38035284	     -7.49999987	     10.82325624	     -2.88911628	      2.59965861	      4.58457224	     -9.20396458	      7.11613461	     14.93162494	     95.43531101	      3.92214656	     -8.62844813	      2.40976893	      8.85368104	     94.97569703
     30.38333330	     -8.64956279	      3.81621787	     -4.40714859	      0.79517055	      0.80998907	      0.72642889	     14.45564917	     -3.88006018	      2.74288757	     55.95741771	      0.97664118	     -7.53982632	    -11.49585641	     -7.49999987	     25.93854773	      4.83743378	     -0.96744941	     20.09461721	      0.35071723	      8.21739838	     -4.79889337	     -7.49999987	     10.59189562	     -2.74310250	      2.42974808	      4.51300403	     -9.13021400	      6.87713111	     14.81705737	     95.45301649	      3.91277530	     -8.78063536	      2.25936699	      9.25272124	     94.78179924
     30.40000000	     -9.56546240	      3.74290632	     -4.69959935	      0.79423939	      0.81127040	      0.72574399	     18.26926277	     -3.68954562	      2.75636687	     59.06671048	      1.03090858	     -6.98181538	    -11.53631814	     -7.49999987	     25.71214420	      4.73702408	     -0.99166669	     19.68474323	      0.34356358	      8.43900323	     -5.21552138	     -7.49999987	     11.52058240	     -2.29882276	      2.25768332	      4.08458384	     -9.24132442	      6.41628611	     14.23326529	     95.52494311	      3.89525239	     -8.68759187	      2.01841142	      9.73764468	     94.44670974
     30.41666670	     -9.88381836	      3.64764292	     -4.91962028	      0.79310932	      0.81379466	      0.72543144	     21.51965158	     -3.47001535	      2.80819253	     61.89019198	      1.08018762	     -5.83256580	    -11.75511923	     -7.49999987	     24.77624398	      4.69245849	     -1.01016215	     19.16004109	      0.33440580	      8.47985878	     -5.53998138	     -7.49999987	     11.58187830	     -1.99131430	      1.87983308	      3.80890054	     -9.28806819	      6.19455670	     13.91470673	     95.52458532	      4.10978272	     -8.74416147	      1.99979013	      9.96673198	     94.28557138
     30.43333330	    -10.59821781	      3.48901171	     -4.80227600	      0.79150963	      0.81585672	      0.72472922	     25.38479459	     -3.16516542	      2.79747298	     64.23216981	      1.12106285	     -4.09872364	    -11.81875238	     -7.49999987	     24.25534625	      4.68026043	     -0.75811671	     18.68023145	      0.32603154	      8.51911514	     -5.87256334	     -7.49999987	     12.26446796	     -1.69428746	      1.25831393	      3.20573795	     -9.28531848	      5.90358020	     13.32067661	     95.54077790	      4.24852891	     -8.83784073	      2.16282181	     10.09106129	     94.17415215
     30.45000000	    -11.22953062	      3.28104105	     -4.52551656	      0.79008973	      0.81649531	      0.72369576	     28.98642442	     -2.81102778	      2.79482941	     65.72121205	      1.14705154	     -1.80118100	    -12.05107247	     -7.49999987	     23.65112344	      4.69590287	     -0.28022549	     18.35025918	      0.32027244	      8.82486162	     -6.27025775	     -7.49999987	     12.86803529	     -1.40119825	      0.44185153	      2.39405181	     -9.29194537	      5.39740848	     12.72588997	     95.43030320	      4.48631102	     -8.99421617	      3.48097138	     10.14035512	     93.52367481
